<svg xmlns="http://www.w3.org/2000/svg" viewBox="0 0 100 100">
  <ellipse cx="50" cy="90" rx="26" ry="6" fill="rgba(0,0,0,0.12)"/>
  <g stroke="#f9a825" stroke-width="3.5" stroke-linecap="round">
    <path d="M38 88 L38 32" fill="none"/>
    <path d="M44 88 L44 28" fill="none"/>
    <path d="M50 88 L50 24" fill="none"/>
    <path d="M56 88 L56 28" fill="none"/>
    <path d="M62 88 L62 32" fill="none"/>
  </g>
  <g fill="#ffca28" stroke="#f57f17" stroke-width="3" stroke-linejoin="round">
    <ellipse cx="38" cy="30" rx="7" ry="12" transform="rotate(-12 38 30)"/>
    <ellipse cx="44" cy="26" rx="7" ry="13" transform="rotate(-4 44 26)"/>
    <ellipse cx="50" cy="22" rx="7" ry="14"/>
    <ellipse cx="56" cy="26" rx="7" ry="13" transform="rotate(4 56 26)"/>
    <ellipse cx="62" cy="30" rx="7" ry="12" transform="rotate(12 62 30)"/>
  </g>
  <path d="M34 58 Q50 52 66 58" fill="none" stroke="#66bb6a" stroke-width="5" stroke-linecap="round"/>
  <path d="M36 68 Q50 62 64 68" fill="none" stroke="#43a047" stroke-width="5" stroke-linecap="round"/>
  <ellipse cx="50" cy="58" rx="18" ry="5" fill="#81c784" stroke="#2e7d32" stroke-width="3"/>
</svg>
