<svg xmlns="http://www.w3.org/2000/svg" viewBox="0 0 280 180" role="img" aria-labelledby="title">
  <title>Fleur au soleil</title>
  <defs>
    <linearGradient id="fSky" x1="0" y1="0" x2="0" y2="1">
      <stop offset="0%" stop-color="#4fc3f7"/>
      <stop offset="100%" stop-color="#b3e5fc"/>
    </linearGradient>
    <linearGradient id="fGrass" x1="0" y1="0" x2="0" y2="1">
      <stop offset="0%" stop-color="#aed581"/>
      <stop offset="100%" stop-color="#7cb342"/>
    </linearGradient>
  </defs>

  <rect width="280" height="180" fill="url(#fSky)"/>

  <circle cx="52" cy="42" r="26" fill="#ffeb3b" stroke="#f9a825" stroke-width="4"/>
  <g stroke="#f9a825" stroke-width="2.5" stroke-linecap="round">
    <line x1="52" y1="10" x2="52" y2="2"/>
    <line x1="52" y1="74" x2="52" y2="82"/>
    <line x1="20" y1="42" x2="12" y2="42"/>
    <line x1="84" y1="42" x2="92" y2="42"/>
  </g>

  <ellipse cx="210" cy="36" rx="34" ry="16" fill="#fff" opacity="0.9"/>
  <ellipse cx="248" cy="58" rx="24" ry="12" fill="#fff" opacity="0.75"/>

  <rect x="0" y="108" width="280" height="72" fill="url(#fGrass)"/>
  <ellipse cx="40" cy="116" rx="20" ry="8" fill="#9ccc65"/>
  <ellipse cx="240" cy="120" rx="24" ry="9" fill="#9ccc65"/>

  <path d="M140 178 L140 98" stroke="#2e7d32" stroke-width="8" stroke-linecap="round"/>
  <ellipse cx="128" cy="132" rx="14" ry="7" fill="#66bb6a" stroke="#2e7d32" stroke-width="2" transform="rotate(-30 128 132)"/>
  <ellipse cx="152" cy="148" rx="14" ry="7" fill="#66bb6a" stroke="#2e7d32" stroke-width="2" transform="rotate(25 152 148)"/>

  <circle cx="140" cy="78" r="14" fill="#ffeb3b" stroke="#f9a825" stroke-width="3"/>
  <g fill="#f48fb1" stroke="#e91e63" stroke-width="3">
    <circle cx="140" cy="48" r="18"/>
    <circle cx="112" cy="62" r="18"/>
    <circle cx="168" cy="62" r="18"/>
    <circle cx="118" cy="88" r="18"/>
    <circle cx="162" cy="88" r="18"/>
  </g>
</svg>
