<svg xmlns="http://www.w3.org/2000/svg" viewBox="0 0 140 110" role="img" aria-hidden="true">
  <ellipse cx="70" cy="104" rx="50" ry="5" fill="rgba(0,0,0,0.12)"/>
  <g stroke="#5d4037" stroke-width="3.5" stroke-linejoin="round">
    <rect x="22" y="50" width="96" height="50" rx="4" fill="#ffecb3"/>
    <path d="M12 52 L70 10 L128 52 Z" fill="#d32f2f"/>
    <path d="M58 10 L70 2 L82 10" fill="#ffc107" stroke="#f57f17" stroke-width="2"/>
    <rect x="60" y="70" width="20" height="30" rx="2" fill="#5d4037"/>
    <circle cx="76" cy="84" r="2" fill="#ffca28"/>
    <rect x="32" y="62" width="16" height="16" rx="2" fill="#e3f2fd" stroke="#1565c0" stroke-width="2.5"/>
    <line x1="40" y1="62" x2="40" y2="78" stroke="#1565c0" stroke-width="2"/>
    <line x1="32" y1="70" x2="48" y2="70" stroke="#1565c0" stroke-width="2"/>
    <rect x="92" y="62" width="16" height="16" rx="2" fill="#e3f2fd" stroke="#1565c0" stroke-width="2.5"/>
    <line x1="100" y1="62" x2="100" y2="78" stroke="#1565c0" stroke-width="2"/>
    <line x1="92" y1="70" x2="108" y2="70" stroke="#1565c0" stroke-width="2"/>
    <rect x="48" y="38" width="44" height="14" rx="3" fill="#fff8e1"/>
    <text x="70" y="48" text-anchor="middle" font-family="Nunito,Arial,sans-serif" font-size="9" font-weight="800" fill="#5d4037">FERME</text>
    <rect x="26" y="88" width="18" height="10" rx="2" fill="#81c784"/>
    <circle cx="30" cy="86" r="4" fill="#f48fb1" stroke="#c2185b" stroke-width="1.5"/>
    <circle cx="38" cy="85" r="3.5" fill="#fff59d" stroke="#f9a825" stroke-width="1.5"/>
    <rect x="96" y="88" width="18" height="10" rx="2" fill="#81c784"/>
    <circle cx="100" cy="86" r="4" fill="#ce93d8" stroke="#7b1fa2" stroke-width="1.5"/>
    <circle cx="108" cy="85" r="3.5" fill="#ffab91" stroke="#e64a19" stroke-width="1.5"/>
  </g>
</svg>
