<svg xmlns="http://www.w3.org/2000/svg" viewBox="0 0 240 62" role="img" aria-hidden="true">
  <g stroke="#5d4037" stroke-width="3.5" stroke-linecap="round" stroke-linejoin="round">
    <rect x="4" y="8" width="10" height="42" rx="2" fill="#a1887f"/>
    <rect x="34" y="8" width="10" height="42" rx="2" fill="#a1887f"/>
    <rect x="64" y="8" width="10" height="42" rx="2" fill="#a1887f"/>
    <rect x="94" y="8" width="10" height="42" rx="2" fill="#a1887f"/>
    <rect x="124" y="8" width="10" height="42" rx="2" fill="#a1887f"/>
    <rect x="154" y="8" width="10" height="42" rx="2" fill="#a1887f"/>
    <rect x="184" y="8" width="10" height="42" rx="2" fill="#a1887f"/>
    <rect x="214" y="8" width="10" height="42" rx="2" fill="#a1887f"/>
    <rect x="0" y="16" width="240" height="9" rx="3" fill="#8d6e63"/>
    <rect x="0" y="34" width="240" height="9" rx="3" fill="#8d6e63"/>
  </g>
  <g stroke="#2e7d32" stroke-width="2">
    <circle cx="20" cy="48" r="5" fill="#f48fb1"/>
    <circle cx="20" cy="48" r="2" fill="#ffeb3b"/>
    <circle cx="60" cy="50" r="4.5" fill="#ce93d8"/>
    <circle cx="60" cy="50" r="1.8" fill="#fff59d"/>
    <circle cx="100" cy="48" r="5" fill="#ffab91"/>
    <circle cx="100" cy="48" r="2" fill="#ffeb3b"/>
    <circle cx="140" cy="50" r="4.5" fill="#90caf9"/>
    <circle cx="140" cy="50" r="1.8" fill="#fff59d"/>
    <circle cx="180" cy="48" r="5" fill="#f48fb1"/>
    <circle cx="180" cy="48" r="2" fill="#ffeb3b"/>
    <circle cx="220" cy="50" r="4.5" fill="#a5d6a7"/>
    <circle cx="220" cy="50" r="1.8" fill="#fff59d"/>
  </g>
</svg>
