<svg xmlns="http://www.w3.org/2000/svg" viewBox="0 0 90 70" role="img" aria-hidden="true">
  <g stroke="#388e3c" stroke-width="3" stroke-linecap="round">
    <path d="M18 58 Q18 38 18 28" fill="none"/>
    <path d="M18 28 Q10 22 6 18" fill="none"/>
    <path d="M18 32 Q26 24 32 20" fill="none"/>
    <path d="M45 60 Q45 36 45 24" fill="none"/>
    <path d="M45 24 Q38 18 34 14" fill="none"/>
    <path d="M45 28 Q52 20 58 16" fill="none"/>
    <path d="M72 58 Q72 40 72 30" fill="none"/>
    <path d="M72 30 Q64 24 60 20" fill="none"/>
    <path d="M72 34 Q80 26 84 22" fill="none"/>
  </g>
  <g fill="#66bb6a" stroke="#2e7d32" stroke-width="2.5">
    <ellipse cx="18" cy="58" rx="8" ry="4"/>
    <ellipse cx="45" cy="60" rx="9" ry="4"/>
    <ellipse cx="72" cy="58" rx="8" ry="4"/>
  </g>
</svg>
