<svg xmlns="http://www.w3.org/2000/svg" viewBox="0 0 130 95" role="img" aria-hidden="true">
  <ellipse cx="65" cy="88" rx="40" ry="5" fill="rgba(0,0,0,0.1)"/>
  <path d="M58 88 L62 42 L68 42 L72 88 Z" fill="#795548" stroke="#4e342e" stroke-width="3.5" stroke-linejoin="round"/>
  <g fill="#66bb6a" stroke="#2e7d32" stroke-width="3.5">
    <circle cx="42" cy="48" r="18"/>
    <circle cx="88" cy="48" r="18"/>
    <circle cx="65" cy="28" r="20"/>
    <circle cx="65" cy="58" r="15"/>
  </g>
  <g stroke="#c2185b" stroke-width="2">
    <circle cx="38" cy="44" r="4" fill="#ef5350"/>
    <circle cx="92" cy="42" r="4" fill="#f48fb1"/>
    <circle cx="65" cy="22" r="4" fill="#fff59d"/>
    <circle cx="72" cy="52" r="3.5" fill="#ce93d8"/>
  </g>
  <g stroke="#388e3c" stroke-width="2.5" stroke-linecap="round">
    <line x1="14" y1="78" x2="14" y2="58"/>
    <line x1="116" y1="78" x2="116" y2="58"/>
  </g>
  <circle cx="14" cy="52" r="8" fill="#f48fb1" stroke="#c2185b" stroke-width="2"/>
  <circle cx="14" cy="52" r="3" fill="#fff59d"/>
  <circle cx="116" cy="54" r="8" fill="#90caf9" stroke="#1565c0" stroke-width="2"/>
  <circle cx="116" cy="54" r="3" fill="#fff59d"/>
  <g fill="#81c784" stroke="#2e7d32" stroke-width="2">
    <ellipse cx="14" cy="78" rx="9" ry="3.5"/>
    <ellipse cx="116" cy="78" rx="9" ry="3.5"/>
  </g>
</svg>
